<?xml version="1.0" standalone="no"?>
<!DOCTYPE svg PUBLIC "-//W3C//DTD SVG 20010904//EN"
 "http://www.w3.org/TR/2001/REC-SVG-20010904/DTD/svg10.dtd">
<svg version="1.0" xmlns="http://www.w3.org/2000/svg"
 width="743.000000pt" height="743.000000pt" viewBox="0 0 743.000000 743.000000"
 preserveAspectRatio="xMidYMid meet">
<metadata>
Created by potrace 1.14, written by Peter Selinger 2001-2017
</metadata>
<g transform="translate(0.000000,743.000000) scale(0.100000,-0.100000)"
fill="#000000" stroke="none">
<path d="M3585 5744 c-100 -17 -228 -74 -1049 -471 -1136 -549 -1135 -549
-1170 -581 -39 -36 -57 -83 -49 -123 15 -78 21 -82 1081 -594 546 -264 1022
-490 1057 -503 147 -52 373 -51 521 1 35 12 510 238 1056 502 1060 513 1066
516 1081 594 16 80 -37 132 -229 225 -1195 581 -1900 917 -1949 931 -60 16
-289 28 -350 19z m1172 -1483 c55 -27 66 -63 32 -96 -13 -13 -240 -129 -504
-257 l-480 -232 -90 0 -90 0 -315 153 c-173 84 -323 160 -332 169 -37 31 -17
82 40 105 58 23 122 30 177 17 28 -6 148 -58 267 -116 155 -74 228 -104 254
-104 28 0 138 49 428 189 215 104 400 191 411 194 45 13 160 0 202 -22z"/>
<path d="M1903 3841 c-22 -14 -35 -32 -43 -61 -7 -27 -10 -225 -8 -623 l3
-582 33 -68 c19 -38 49 -80 70 -98 47 -40 1435 -719 1483 -726 30 -4 42 0 70
25 l34 30 0 619 0 618 -28 57 c-16 32 -47 74 -70 94 -47 41 -1425 719 -1480
729 -22 4 -42 0 -64 -14z m1142 -753 l250 -123 27 -54 28 -53 0 -413 c0 -227
-3 -427 -6 -444 -4 -18 -17 -39 -29 -47 -20 -13 -27 -13 -57 -1 -43 18 -84 67
-98 115 -6 22 -10 177 -10 382 -1 265 -4 349 -14 362 -7 9 -94 58 -194 107
-192 96 -206 107 -233 189 -20 61 12 118 60 109 15 -3 139 -61 276 -129z"/>
<path d="M5395 3821 c-728 -348 -1381 -673 -1413 -704 -18 -18 -48 -61 -65
-97 l-32 -65 -3 -585 c-2 -521 -1 -590 13 -628 9 -23 25 -47 35 -52 52 -28 82
-16 619 247 812 396 904 442 933 470 14 14 41 53 60 87 l33 61 3 603 c3 658 3
655 -54 681 -38 17 -64 14 -129 -18z m-680 -631 c24 -27 16 -98 -19 -150 -22
-34 -50 -51 -209 -129 -141 -69 -186 -96 -195 -116 -9 -18 -12 -128 -12 -373
0 -315 -2 -351 -19 -387 -35 -79 -110 -117 -153 -78 -17 15 -18 43 -18 466 0
444 0 450 22 488 12 22 33 47 47 56 57 38 488 242 512 242 14 1 34 -8 44 -19z"/>
</g>
</svg>
